PathFileType	4	(X/Y/Z)	 s11c0403.trc
DataRate	CameraRate	NumFrames	NumMarkers	Units	OrigDataRate	OrigDataStartFrame	OrigNumFrames
200	200	7	48	mm	200	251	2000
Frame#	Time	racr			lacr			c7			jug			rlel			rdr			llel			ldr			s2			lic			ric			lasi			rasi			rpsi			lpsi			rgt			lgt			rth1			rth2			rth3			rth4			rlfc			rmfc			rsh1			rsh2			rsh3			rsh4			rlmal			rcal			rtoe			rmt5			lth1			lth2			lth4			lth3			llfc			lmfc			llmal			lcal			lmt5			lsh1			lsh2			lsh3			lsh4			ltoe			SBIKE			LBIKE			RBIKE			
		X1	Y1	Z1	X2	Y2	Z2	X3	Y3	Z3	X4	Y4	Z4	X5	Y5	Z5	X6	Y6	Z6	X7	Y7	Z7	X8	Y8	Z8	X9	Y9	Z9	X10	Y10	Z10	X11	Y11	Z11	X12	Y12	Z12	X13	Y13	Z13	X14	Y14	Z14	X15	Y15	Z15	X16	Y16	Z16	X17	Y17	Z17	X18	Y18	Z18	X19	Y19	Z19	X20	Y20	Z20	X21	Y21	Z21	X22	Y22	Z22	X23	Y23	Z23	X24	Y24	Z24	X25	Y25	Z25	X26	Y26	Z26	X27	Y27	Z27	X28	Y28	Z28	X29	Y29	Z29	X30	Y30	Z30	X31	Y31	Z31	X32	Y32	Z32	X33	Y33	Z33	X34	Y34	Z34	X35	Y35	Z35	X36	Y36	Z36	X37	Y37	Z37	X38	Y38	Z38	X39	Y39	Z39	X40	Y40	Z40	X41	Y41	Z41	X42	Y42	Z42	X43	Y43	Z43	X44	Y44	Z44	X45	Y45	Z45	X46	Y46	Z46	X47	Y47	Z47	X48	Y48	Z48	
251	1.2550	417.967768	1434.561903	-91.641784	409.385544	1442.793362	-407.038838	307.679124	1560.471968	-250.659870	357.800409	1394.695658	-253.658890	557.802648	1189.961543	-26.737118	776.068546	972.286786	-42.436582	533.864881	1167.423362	-473.642746	792.734009	961.827567	-448.053656	-148.081791	1170.435458	-245.702255	55.248443	1233.144993	-447.359709	66.479652	1206.398710	-46.181839	104.759072	1165.450355	-409.395976	117.781941	1158.608556	-81.779472	-125.994104	1244.495001	-185.845098	-127.473148	1244.102766	-278.028414	21.502498	1033.816073	-36.054835	4.781111	1107.276748	-466.785349	110.043203	919.245965	-33.104067	179.869196	864.068121	-44.387240	211.906604	784.538303	-62.995293	208.489676	887.229776	-52.116001	273.190857	698.392784	-81.331943	273.396718	681.558534	-207.032723	199.074066	556.476432	-66.672401	182.595061	471.549617	-84.264806	126.878678	404.234509	-86.251712	206.165445	463.749470	-115.162156	59.784923	284.773939	-101.048815	-3.663654	276.978985	-150.717217	268.042855	188.758222	-135.364080	192.233518	175.795037	-68.901192	147.675361	1061.456109	-483.327917	233.335490	1060.944785	-480.182627	244.246278	1094.624411	-467.719498	310.798258	1014.669340	-482.248985	442.055349	958.380672	-459.915610	456.196977	954.620892	-332.191831	237.043087	584.430853	-411.360087	173.413146	548.448027	-373.097619	368.736603	476.155615	-439.112995	385.800047	844.449278	-471.817196	370.257075	762.799210	-450.649539	314.071617	694.995998	-440.381881	398.634185	754.255862	-425.617947	465.350802	487.149677	-370.480218	-169.126943	972.204729	-172.452008	1.215304	82.439886	-460.952897	-15.469235	81.051264	-62.393094	
252	1.2600	417.933719	1434.496620	-91.783300	409.302880	1442.841915	-407.191765	307.531112	1560.534883	-250.718169	357.645991	1394.705875	-253.787209	557.775733	1189.956071	-26.754553	776.052113	972.279324	-42.317391	533.686181	1167.344725	-473.712986	792.676810	961.839543	-448.035472	-148.243091	1170.400029	-245.601435	54.996931	1233.166692	-447.355996	66.346216	1206.437864	-46.127786	104.475589	1165.478805	-409.312657	117.663224	1158.632525	-81.696940	-126.178998	1244.503860	-185.719898	-127.648174	1244.052979	-277.915190	21.384096	1033.782016	-36.023390	4.622235	1107.339457	-466.719555	110.021187	919.256147	-33.114276	179.888999	864.151471	-44.378092	211.985714	784.668116	-63.012393	208.498016	887.351737	-52.113554	273.308733	698.530471	-81.359031	273.524047	681.778648	-207.091727	199.216610	556.675659	-66.668568	182.699871	471.777025	-84.258557	126.803674	404.651415	-86.222771	206.235745	464.004771	-115.199915	59.766263	285.033435	-101.062264	-3.670794	277.446798	-150.735429	267.862735	188.747143	-135.372497	192.012436	175.901314	-68.907061	147.509294	1061.537610	-483.228320	233.173877	1060.976521	-480.086329	244.077475	1094.651033	-467.625674	310.639589	1014.826940	-482.458692	441.884385	958.289846	-459.773497	456.066436	954.566282	-332.065541	237.176170	584.203322	-411.312687	173.539370	548.181662	-373.107757	368.922488	476.013210	-439.074027	385.750309	844.344427	-471.717340	370.236953	762.694895	-450.580709	314.105851	694.789791	-440.339337	398.612244	754.139713	-425.554369	465.565355	487.068686	-370.501003	-169.102984	972.144404	-172.584602	1.197026	82.445336	-460.938159	-15.463816	81.064348	-62.401612	
253	1.2650	417.895893	1434.448675	-91.918540	409.244830	1442.830883	-407.239398	307.392569	1560.556082	-250.824856	357.542432	1394.710179	-253.930638	557.753973	1189.944468	-26.726423	776.034937	972.287185	-42.185019	533.550816	1167.305210	-473.816103	792.622037	961.873589	-448.098745	-148.380459	1170.358734	-245.504375	54.720386	1233.167545	-447.288158	66.224570	1206.468107	-46.060460	104.252472	1165.508989	-409.225925	117.550141	1158.628714	-81.600432	-126.303294	1244.516518	-185.636448	-127.884606	1244.023175	-277.758168	21.298183	1033.771739	-35.988186	4.431144	1107.374300	-466.627764	110.018100	919.293313	-33.113272	179.926350	864.239694	-44.373130	212.101898	784.800205	-63.062947	208.509297	887.484507	-52.056397	273.444490	698.724211	-81.373371	273.679170	681.933720	-207.117049	199.363483	556.869340	-66.674024	182.765855	471.935013	-84.271545	126.827329	404.954635	-86.251860	206.297152	464.235926	-115.191627	59.668036	285.331920	-101.036101	-3.743511	277.853735	-150.766106	267.642881	188.751681	-135.384476	191.767956	176.027418	-68.930953	147.355771	1061.587367	-483.139345	233.045049	1061.028709	-480.015419	243.949509	1094.664442	-467.536268	310.490762	1014.834572	-482.412587	441.709006	958.164234	-459.622515	455.921221	954.546111	-331.926828	237.330422	583.913587	-411.242714	173.712528	547.851357	-373.154460	369.196964	475.850074	-439.040497	385.699475	844.201909	-471.595603	370.260320	762.524131	-450.449259	314.195730	694.536838	-440.280491	398.638572	754.007359	-425.470128	465.833288	486.957774	-370.494849	-169.104127	972.131828	-172.639590	1.209543	82.432286	-460.949137	-15.462081	81.044417	-62.377828	
254	1.2700	417.878274	1434.398476	-92.051298	409.133122	1442.808084	-407.357598	307.295465	1560.566709	-250.921871	357.461342	1394.699719	-254.050785	557.738485	1189.953009	-26.654206	776.027845	972.306448	-42.029207	533.451586	1167.282845	-473.889385	792.587338	961.890175	-448.112961	-148.525039	1170.318339	-245.429525	54.468864	1233.189172	-447.284506	66.081423	1206.479476	-46.020953	104.086900	1165.594801	-409.211615	117.454541	1158.626696	-81.541672	-126.387977	1244.505578	-185.566966	-128.120260	1244.023219	-277.601315	21.217004	1033.751852	-35.966385	4.254990	1107.433931	-466.556819	110.036498	919.349186	-33.088356	179.961380	864.358175	-44.333626	212.258526	784.928614	-63.080150	208.571187	887.613490	-52.048393	273.641054	698.901954	-81.394850	273.942002	682.164943	-207.097482	199.538861	557.144557	-66.706560	182.832977	472.209949	-84.272096	126.830454	405.201303	-86.266693	206.357286	464.497603	-115.168456	59.549376	285.745104	-101.050298	-3.878601	278.388829	-150.758008	267.379813	188.777000	-135.368877	191.447927	176.202867	-68.937215	147.234540	1061.642989	-483.055136	232.932669	1061.046485	-479.914674	243.843674	1094.678759	-467.414988	310.326082	1014.834532	-482.293729	441.542374	958.030127	-459.458568	455.779625	954.414662	-331.776309	237.598146	583.582051	-411.219511	173.960880	547.456100	-373.141179	369.592697	475.611792	-438.985475	385.652730	844.029628	-471.459368	370.296906	762.335323	-450.377815	314.301599	694.261421	-440.204088	398.672341	753.855646	-425.371943	466.139226	486.834996	-370.496411	-169.015222	972.221743	-172.362681	1.188140	82.442121	-460.937569	-15.465176	81.050495	-62.378491	
255	1.2750	417.868602	1434.342688	-92.173851	409.026929	1442.757845	-407.440677	307.162813	1560.584464	-251.052994	357.400469	1394.639821	-254.154337	557.728767	1189.969971	-26.580530	776.006606	972.323205	-41.854893	533.354927	1167.283712	-474.006937	792.560212	961.894922	-448.194845	-148.660820	1170.300836	-245.334344	54.206864	1233.227053	-447.185762	65.983434	1206.499232	-45.967847	103.941719	1165.636285	-409.177153	117.338870	1158.619754	-81.485800	-126.534408	1244.518274	-185.455308	-128.347912	1244.044228	-277.451860	21.122983	1033.747079	-35.933969	4.078333	1107.483587	-466.479811	110.070298	919.391256	-33.097804	180.043577	864.483650	-44.292985	212.422132	785.095378	-63.106019	208.607371	887.758449	-52.009012	273.864532	699.140946	-81.409452	274.247713	682.404331	-207.086978	199.664164	557.420471	-66.688650	182.908615	472.490045	-84.267608	126.814750	405.545648	-86.310361	206.389030	464.791756	-115.147927	59.372583	286.256953	-101.063880	-4.162055	279.098613	-150.695038	267.048817	188.805003	-135.304307	191.082590	176.356311	-69.004983	147.123441	1061.665449	-482.978851	232.820967	1061.035057	-479.833310	243.723232	1094.656714	-467.316988	310.179342	1014.812988	-482.209067	441.379478	957.875311	-459.296489	455.592144	954.325602	-331.645873	237.911440	583.143280	-411.206541	174.271906	546.962088	-373.143551	370.031179	475.325662	-438.956388	385.625856	843.827646	-471.319075	370.373490	762.116452	-450.319084	314.448879	694.024226	-440.172862	398.745903	753.659646	-425.285839	466.521760	486.669568	-370.493533	-169.099944	972.201789	-172.414564	1.199938	82.433938	-460.946403	-15.469633	81.052673	-62.371551	
256	1.2800	417.846453	1434.295666	-92.265449	408.938631	1442.735352	-407.517308	307.030086	1560.602897	-251.164927	357.343233	1394.544106	-254.338331	557.716584	1190.004994	-26.454697	775.994606	972.341126	-41.724518	533.300874	1167.288371	-474.137326	792.529207	961.913141	-448.288788	-148.830209	1170.293928	-245.214444	53.998351	1233.250004	-447.228332	65.875371	1206.544412	-45.932083	103.763804	1165.616452	-409.087601	117.234644	1158.628588	-81.426918	-126.637212	1244.537618	-185.362332	-128.539138	1244.043813	-277.314806	21.051156	1033.747860	-35.896992	3.925546	1107.503916	-466.410140	110.115165	919.460374	-33.072033	180.128308	864.630857	-44.272232	212.617485	785.255063	-63.099985	208.676790	887.905812	-51.965890	274.152674	699.372414	-81.393423	274.548915	682.679586	-207.103082	199.792499	557.848408	-66.688569	182.940753	472.895495	-84.282018	126.811767	405.947363	-86.342177	206.430563	465.052814	-115.179224	59.126904	286.881771	-101.086184	-4.326299	279.712472	-150.723332	266.624235	188.884805	-135.345109	190.627950	176.618062	-69.007243	146.995563	1061.673673	-482.897123	232.696150	1061.019967	-479.738217	243.628649	1094.617606	-467.189339	310.024984	1014.761036	-482.117638	441.207840	957.689290	-459.114153	455.398610	954.162113	-331.467985	238.291778	582.731110	-411.191190	174.651263	546.460529	-373.136669	370.450014	474.950194	-438.974201	385.609097	843.601246	-471.155899	370.461465	761.831404	-450.215625	314.620033	693.753483	-440.063415	398.849383	753.447951	-425.234838	466.986220	486.475026	-370.463343	-168.984505	972.262781	-172.218819	1.196053	82.445564	-460.938462	-15.461635	81.038186	-62.388584	
257	1.2850	417.845725	1434.300495	-92.373096	408.850941	1442.676252	-407.627908	306.902883	1560.612854	-251.301274	357.286436	1394.449882	-254.459612	557.702198	1190.046851	-26.278832	775.985303	972.360606	-41.547749	533.249428	1167.285558	-474.275491	792.519402	961.928106	-448.415019	-148.976890	1170.269381	-245.122710	53.743480	1233.257568	-447.087729	65.784104	1206.559673	-45.903066	103.608624	1165.666361	-409.088495	117.134804	1158.640064	-81.373958	-126.881811	1244.508799	-185.206315	-128.727977	1244.063549	-277.179686	20.994169	1033.745195	-35.856207	3.768688	1107.535624	-466.351435	110.206660	919.541711	-33.076641	180.285492	864.816105	-44.223273	212.878296	785.372471	-63.130901	208.785963	888.134821	-51.945538	274.433377	699.601281	-81.383685	274.859728	683.007819	-207.081688	199.930717	558.246572	-66.677937	182.958752	473.393245	-84.268130	126.772803	406.367985	-86.340952	206.461828	465.390791	-115.168872	58.914331	287.415444	-101.043907	-4.501982	280.382540	-150.704084	266.127817	188.949018	-135.373400	190.126269	176.927766	-68.989725	146.877816	1061.669935	-482.843767	232.556255	1060.986396	-479.652440	243.512560	1094.572412	-467.109049	309.890866	1014.700140	-482.031330	441.046699	957.501795	-458.948810	455.234757	953.900201	-331.296426	238.646836	582.235556	-411.156162	175.056122	545.916193	-373.177529	370.960054	474.622507	-439.018668	385.604702	843.331079	-471.014343	370.563681	761.539479	-450.178857	314.849959	693.308098	-440.003172	398.977133	753.153387	-425.106546	467.527699	486.158999	-370.418303	-169.045157	972.179611	-172.402293	1.193329	82.439314	-460.945383	-15.462047	81.036412	-62.370749	
